<svg xmlns="http://www.w3.org/2000/svg" viewBox="0 0 180 60"><path fill="#1a1a1a" d="M60.009 38.86a2.666 2.666 0 0 1-.484 1.624 2.985 2.985 0 0 1-1.329 1 5.153 5.153 0 0 1-1.933.34 9.249 9.249 0 0 1-1.692-.136 6.366 6.366 0 0 1-1.239-.347v-.862a9.251 9.251 0 0 0 1.337.4 7.429 7.429 0 0 0 1.654.174 3.48 3.48 0 0 0 2.016-.536 1.811 1.811 0 0 0 .778-1.595 1.77 1.77 0 0 0-.295-1.051 2.417 2.417 0 0 0-.906-.725 11.843 11.843 0 0 0-1.563-.627 9.505 9.505 0 0 1-1.556-.687 2.715 2.715 0 0 1-1-.937 2.686 2.686 0 0 1-.347-1.428 2.494 2.494 0 0 1 .445-1.5 2.785 2.785 0 0 1 1.224-.922 4.662 4.662 0 0 1 1.775-.318 7.144 7.144 0 0 1 2.84.575l-.3.756a6.459 6.459 0 0 0-2.568-.544 3.113 3.113 0 0 0-1.82.491 1.649 1.649 0 0 0-.7 1.443 1.851 1.851 0 0 0 .3 1.111 2.349 2.349 0 0 0 .876.7 11.891 11.891 0 0 0 1.4.575 11.555 11.555 0 0 1 1.639.7 3 3 0 0 1 1.065.914 2.415 2.415 0 0 1 .378 1.406Zm5.04 2.962a3.455 3.455 0 0 1-2.727-1.08 4.432 4.432 0 0 1-.96-3.045 4.966 4.966 0 0 1 .484-2.289 3.365 3.365 0 0 1 1.351-1.435 4.031 4.031 0 0 1 2.016-.491 5.353 5.353 0 0 1 1.1.106 4.2 4.2 0 0 1 .9.287l-.241.756a4.256 4.256 0 0 0-1.752-.378 2.694 2.694 0 0 0-2.19.922 3.791 3.791 0 0 0-.771 2.509 3.97 3.97 0 0 0 .68 2.448 2.42 2.42 0 0 0 2.1.937 5.065 5.065 0 0 0 1.133-.121 4.81 4.81 0 0 0 .952-.318v.771a3.9 3.9 0 0 1-.906.31 5.44 5.44 0 0 1-1.163.114Zm4.006-11.167q.6 0 .6.65c0 .433-.2.665-.6.665s-.574-.222-.574-.665.192-.653.571-.653Zm.423 2.977v8.039h-.846v-8.039Zm5.307-.151a2.974 2.974 0 0 1 1.722.476 2.9 2.9 0 0 1 1.045 1.303 4.906 4.906 0 0 1 .347 1.9v.6h-5.747a3.618 3.618 0 0 0 .74 2.44 2.666 2.666 0 0 0 2.13.854 6.266 6.266 0 0 0 1.314-.121 6.152 6.152 0 0 0 1.224-.423v.785a5.725 5.725 0 0 1-1.193.393 6.9 6.9 0 0 1-1.374.121 3.479 3.479 0 0 1-2.764-1.1 4.405 4.405 0 0 1-.967-3.007 5.435 5.435 0 0 1 .416-2.183 3.443 3.443 0 0 1 1.2-1.5 3.257 3.257 0 0 1 1.9-.544Zm-.015.725a2.327 2.327 0 0 0-1.79.741 3.443 3.443 0 0 0-.808 2.1h4.818a3.578 3.578 0 0 0-.536-2.055 1.9 1.9 0 0 0-1.684-.786Zm8.469-.725a2.878 2.878 0 0 1 2.1.71 2.992 2.992 0 0 1 .725 2.221v5.259h-.861v-5.2a2.375 2.375 0 0 0-.521-1.693 2.025 2.025 0 0 0-1.533-.544q-2.659 0-2.658 3.053v4.382h-.846V33.63h.695l.121 1.39h.06a2.67 2.67 0 0 1 1-1.1 3.126 3.126 0 0 1 1.714-.438Zm7.24 7.615a3.819 3.819 0 0 0 .642-.052 3.113 3.113 0 0 0 .521-.129v.7a3.446 3.446 0 0 1-.566.151 3.959 3.959 0 0 1-.717.06 2.034 2.034 0 0 1-1.541-.567 2.566 2.566 0 0 1-.544-1.821v-5.107h-1.192v-.484l1.193-.272.3-1.859h.544v1.919h2.477v.7h-2.477v5.078q0 1.692 1.359 1.693Zm2.961-10.441q.6 0 .6.65c0 .433-.2.665-.6.665s-.574-.222-.574-.665.192-.653.574-.653Zm.422 2.977v8.039h-.846v-8.039Zm5.554.7h-1.918v7.344h-.861v-7.344h-1.48v-.469l1.48-.257v-.786a2.979 2.979 0 0 1 .6-2.048 2.317 2.317 0 0 1 1.8-.657 4.011 4.011 0 0 1 .771.068 5.9 5.9 0 0 1 .634.158l-.2.725a4.776 4.776 0 0 0-.582-.151 3.289 3.289 0 0 0-.627-.06 1.408 1.408 0 0 0-1.178.461 2.423 2.423 0 0 0-.362 1.489v.831h1.918Zm2.279-3.672q.6 0 .6.65c0 .433-.2.665-.6.665s-.574-.222-.574-.665.192-.658.575-.658Zm.423 2.977v8.039h-.846v-8.039Zm5.472 8.191a3.454 3.454 0 0 1-2.727-1.08 4.433 4.433 0 0 1-.959-3.045 4.966 4.966 0 0 1 .484-2.289 3.365 3.365 0 0 1 1.352-1.435 4.03 4.03 0 0 1 2.016-.491 5.353 5.353 0 0 1 1.1.106 4.2 4.2 0 0 1 .9.287l-.241.756a4.256 4.256 0 0 0-1.752-.378 2.694 2.694 0 0 0-2.19.922 3.791 3.791 0 0 0-.771 2.509 3.97 3.97 0 0 0 .68 2.448 2.42 2.42 0 0 0 2.1.937 5.066 5.066 0 0 0 1.133-.121 4.806 4.806 0 0 0 .952-.318v.771a3.9 3.9 0 0 1-.906.31 5.439 5.439 0 0 1-1.163.114Zm12.643-10.306a4.208 4.208 0 0 0-2.281.6 3.876 3.876 0 0 0-1.457 1.662 5.741 5.741 0 0 0-.506 2.486 6.426 6.426 0 0 0 .461 2.524 3.632 3.632 0 0 0 1.367 1.662 4.075 4.075 0 0 0 2.266.59 7.979 7.979 0 0 0 1.442-.121 10.909 10.909 0 0 0 1.247-.3v.756a6.961 6.961 0 0 1-1.231.332 8.811 8.811 0 0 1-1.548.121 5 5 0 0 1-2.727-.7 4.292 4.292 0 0 1-1.646-1.95 7.234 7.234 0 0 1-.551-2.931 6.235 6.235 0 0 1 .611-2.848 4.653 4.653 0 0 1 1.767-1.957 5.222 5.222 0 0 1 2.787-.71 6.364 6.364 0 0 1 2.839.6l-.347.756a5.621 5.621 0 0 0-2.492-.575Zm7.012 1.965a2.975 2.975 0 0 1 1.722.476 2.9 2.9 0 0 1 1.043 1.307 4.906 4.906 0 0 1 .347 1.9v.6h-5.74a3.618 3.618 0 0 0 .74 2.44 2.666 2.666 0 0 0 2.13.854 6.265 6.265 0 0 0 1.314-.121 6.152 6.152 0 0 0 1.224-.423v.785a5.72 5.72 0 0 1-1.193.393 6.894 6.894 0 0 1-1.374.121 3.479 3.479 0 0 1-2.764-1.1 4.406 4.406 0 0 1-.967-3.007 5.437 5.437 0 0 1 .415-2.183 3.443 3.443 0 0 1 1.2-1.5 3.258 3.258 0 0 1 1.9-.544Zm-.016.725a2.328 2.328 0 0 0-1.79.741 3.443 3.443 0 0 0-.808 2.1h4.821a3.577 3.577 0 0 0-.536-2.055 1.9 1.9 0 0 0-1.684-.786Zm8.47-.725a2.878 2.878 0 0 1 2.1.71 2.992 2.992 0 0 1 .725 2.221v5.259h-.861v-5.2a2.375 2.375 0 0 0-.521-1.693 2.025 2.025 0 0 0-1.533-.544q-2.659 0-2.658 3.053v4.382h-.846v-8.039h.695l.121 1.39h.06a2.67 2.67 0 0 1 1-1.1 3.126 3.126 0 0 1 1.714-.438Zm7.241 7.615a3.819 3.819 0 0 0 .642-.052 3.107 3.107 0 0 0 .521-.129v.7a3.443 3.443 0 0 1-.566.151 3.957 3.957 0 0 1-.717.06 2.033 2.033 0 0 1-1.541-.567 2.566 2.566 0 0 1-.544-1.821v-5.107h-1.193v-.484l1.193-.272.3-1.859h.544v1.919h2.477v.7h-2.474v5.078q0 1.692 1.359 1.693Zm5.3-7.615a2.975 2.975 0 0 1 1.722.476 2.9 2.9 0 0 1 1.043 1.307 4.909 4.909 0 0 1 .347 1.9v.6h-5.74a3.618 3.618 0 0 0 .74 2.44 2.666 2.666 0 0 0 2.13.854 6.267 6.267 0 0 0 1.314-.121 6.152 6.152 0 0 0 1.224-.423v.785a5.72 5.72 0 0 1-1.193.393 6.894 6.894 0 0 1-1.374.121 3.479 3.479 0 0 1-2.764-1.1 4.406 4.406 0 0 1-.967-3.007 5.437 5.437 0 0 1 .415-2.183 3.444 3.444 0 0 1 1.2-1.5 3.258 3.258 0 0 1 1.9-.544Zm-.015.725a2.328 2.328 0 0 0-1.79.741 3.444 3.444 0 0 0-.808 2.1h4.818a3.578 3.578 0 0 0-.536-2.055 1.9 1.9 0 0 0-1.684-.786Zm8.167-.71a3.8 3.8 0 0 1 1.087.136l-.121.786a4.2 4.2 0 0 0-.484-.091 4.106 4.106 0 0 0-.514-.03 2.126 2.126 0 0 0-1.76.808 3.364 3.364 0 0 0-.642 2.154v4.413h-.861v-8.039h.725l.091 1.511h.045a3.049 3.049 0 0 1 .914-1.163 2.373 2.373 0 0 1 1.518-.484Zm9.682.831h-1.922v7.344h-.861v-7.344h-1.48v-.469l1.48-.257v-.786a2.98 2.98 0 0 1 .6-2.048 2.317 2.317 0 0 1 1.8-.657 4.013 4.013 0 0 1 .771.068 5.917 5.917 0 0 1 .634.158l-.2.725a4.768 4.768 0 0 0-.582-.151 3.288 3.288 0 0 0-.627-.06 1.408 1.408 0 0 0-1.178.461 2.423 2.423 0 0 0-.362 1.489v.831h1.918Zm7.739 3.325a5.367 5.367 0 0 1-.416 2.191 3.257 3.257 0 0 1-1.224 1.458 3.561 3.561 0 0 1-1.971.521 3.406 3.406 0 0 1-1.918-.513 3.325 3.325 0 0 1-1.231-1.45 5.245 5.245 0 0 1-.43-2.206 4.475 4.475 0 0 1 .974-3.068 3.373 3.373 0 0 1 2.666-1.1 3.46 3.46 0 0 1 1.941.521 3.246 3.246 0 0 1 1.2 1.458 5.454 5.454 0 0 1 .408 2.191Zm-6.3 0a4.3 4.3 0 0 0 .65 2.486 2.3 2.3 0 0 0 2.039.945 2.347 2.347 0 0 0 2.062-.945 4.267 4.267 0 0 0 .657-2.486 5.305 5.305 0 0 0-.272-1.768 2.33 2.33 0 0 0-2.4-1.647 2.4 2.4 0 0 0-2.054.907 4.1 4.1 0 0 0-.68 2.509Zm11.4-4.156a3.8 3.8 0 0 1 1.087.136l-.121.786a4.2 4.2 0 0 0-.484-.091 4.106 4.106 0 0 0-.514-.03 2.126 2.126 0 0 0-1.76.808 3.365 3.365 0 0 0-.642 2.154v4.413h-.861v-8.039h.725l.091 1.511h.046a3.048 3.048 0 0 1 .914-1.163 2.373 2.373 0 0 1 1.518-.484ZM60.166 23.75a2.7 2.7 0 0 1-1.043 2.252 4.521 4.521 0 0 1-2.856.816 9.084 9.084 0 0 1-1.662-.143 5 5 0 0 1-1.315-.415v-1.541a9.461 9.461 0 0 0 1.42.491 6.389 6.389 0 0 0 1.662.219 2.633 2.633 0 0 0 1.632-.423 1.362 1.362 0 0 0 .548-1.136 1.414 1.414 0 0 0-.241-.839 2.3 2.3 0 0 0-.779-.635 11.8 11.8 0 0 0-1.4-.627 7.343 7.343 0 0 1-1.406-.71 2.992 2.992 0 0 1-.967-1.012 2.925 2.925 0 0 1-.347-1.481 2.5 2.5 0 0 1 .968-2.085 4.009 4.009 0 0 1 2.538-.756 6.9 6.9 0 0 1 1.624.181 9.316 9.316 0 0 1 1.428.469l-.513 1.345a9.646 9.646 0 0 0-1.261-.423 5.267 5.267 0 0 0-1.323-.166 2.066 2.066 0 0 0-1.36.393 1.278 1.278 0 0 0-.469 1.028 1.478 1.478 0 0 0 .227.839 2.053 2.053 0 0 0 .725.619 10.527 10.527 0 0 0 1.315.6 9.909 9.909 0 0 1 1.549.763 2.841 2.841 0 0 1 .974.967 2.76 2.76 0 0 1 .332 1.413Zm5.565-5.379a2.948 2.948 0 0 1 2.372 1.058 4.8 4.8 0 0 1 .891 3.159 4.75 4.75 0 0 1-.907 3.151 2.948 2.948 0 0 1-2.372 1.08 2.87 2.87 0 0 1-2.448-1.148h-.106l.068.642a6.563 6.563 0 0 1 .038.657v3.031h-1.6v-11.48h1.3l.227 1.088h.075a3.05 3.05 0 0 1 .929-.876 2.872 2.872 0 0 1 1.533-.363Zm-.378 1.315a1.842 1.842 0 0 0-1.6.65 3.5 3.5 0 0 0-.484 1.994v.241a4.278 4.278 0 0 0 .453 2.176 1.775 1.775 0 0 0 1.662.756 1.6 1.6 0 0 0 1.481-.816 4.146 4.146 0 0 0 .484-2.131 3.906 3.906 0 0 0-.491-2.1 1.66 1.66 0 0 0-1.506-.771Zm8.592-1.315a3.28 3.28 0 0 1 2.523.99 3.8 3.8 0 0 1 .922 2.7v.876h-5.47a2.8 2.8 0 0 0 .657 1.919 2.3 2.3 0 0 0 1.761.665 6.157 6.157 0 0 0 1.4-.143 7.193 7.193 0 0 0 1.262-.43v1.33a5.691 5.691 0 0 1-1.239.415 7.413 7.413 0 0 1-1.481.129 4.474 4.474 0 0 1-2.085-.469 3.323 3.323 0 0 1-1.413-1.39 4.719 4.719 0 0 1-.506-2.3 5.3 5.3 0 0 1 .461-2.327 3.4 3.4 0 0 1 1.284-1.458 3.609 3.609 0 0 1 1.927-.506Zm0 1.239a1.8 1.8 0 0 0-1.383.559 2.592 2.592 0 0 0-.612 1.587h3.838a2.6 2.6 0 0 0-.461-1.549 1.612 1.612 0 0 0-1.383-.6Zm5.915-4.186a1.006 1.006 0 0 1 .635.212.847.847 0 0 1 .272.71.836.836 0 0 1-.272.7.982.982 0 0 1-.635.219 1.024 1.024 0 0 1-.65-.219.85.85 0 0 1-.272-.7.861.861 0 0 1 .272-.71 1.027 1.027 0 0 1 .651-.212Zm.786 3.1v8.145h-1.6v-8.145Zm6.214-.151a3.061 3.061 0 0 1 2.176.71 3.01 3.01 0 0 1 .756 2.282v5.3h-1.587v-5.078q0-1.9-1.678-1.9a1.881 1.881 0 0 0-1.715.741 3.951 3.951 0 0 0-.476 2.131v4.11h-1.6v-8.145h1.269l.227 1.088h.091a2.354 2.354 0 0 1 1.08-.937 3.586 3.586 0 0 1 1.457-.305Zm10.482 6a2.1 2.1 0 0 1-.869 1.828 4.152 4.152 0 0 1-2.44.619 7.767 7.767 0 0 1-1.473-.121 4.416 4.416 0 0 1-1.126-.378v-1.406a7.674 7.674 0 0 0 1.247.461 5.114 5.114 0 0 0 1.4.2 2.292 2.292 0 0 0 1.307-.287.9.9 0 0 0 .4-.771.841.841 0 0 0-.151-.491 1.709 1.709 0 0 0-.567-.453 9.353 9.353 0 0 0-1.217-.536 8.877 8.877 0 0 1-1.323-.619 2.441 2.441 0 0 1-.823-.756 1.976 1.976 0 0 1-.287-1.1 1.834 1.834 0 0 1 .854-1.624 4.024 4.024 0 0 1 2.259-.567 6.208 6.208 0 0 1 1.4.151 7.155 7.155 0 0 1 1.277.423l-.529 1.224a9 9 0 0 0-1.088-.386 4.132 4.132 0 0 0-1.133-.158q-1.482 0-1.481.862a.762.762 0 0 0 .174.5 1.833 1.833 0 0 0 .6.423q.43.212 1.2.513a9.314 9.314 0 0 1 1.277.6 2.384 2.384 0 0 1 .823.748 1.976 1.976 0 0 1 .287 1.1Zm3.155-9.37v3.249c0 .252-.01.5-.031.756s-.04.459-.06.619h.106a2.462 2.462 0 0 1 1.05-.929 3.312 3.312 0 0 1 1.428-.31 3.112 3.112 0 0 1 2.2.71 2.968 2.968 0 0 1 .763 2.266v5.3h-1.587v-5.078q0-1.9-1.678-1.9a1.861 1.861 0 0 0-1.722.756 4.056 4.056 0 0 0-.469 2.131v4.1h-1.6V15h1.6Zm10.609 3.37a3.375 3.375 0 0 1 2.289.673 2.669 2.669 0 0 1 .763 2.108v5.516h-1.134l-.318-1.134h-.06a3.628 3.628 0 0 1-1.111.974 3.466 3.466 0 0 1-1.609.31 2.782 2.782 0 0 1-1.828-.6 2.276 2.276 0 0 1-.725-1.866 2.132 2.132 0 0 1 .945-1.9 5.484 5.484 0 0 1 2.879-.7l1.39-.045v-.449a1.389 1.389 0 0 0-1.556-1.631 3.944 3.944 0 0 0-1.194.181 8.149 8.149 0 0 0-1.1.438l-.514-1.163a6.524 6.524 0 0 1 1.323-.506 5.9 5.9 0 0 1 1.564-.2Zm1.466 4.382-1.088.031a3.585 3.585 0 0 0-1.927.469 1.328 1.328 0 0 0-.536 1.118 1.084 1.084 0 0 0 .378.922 1.58 1.58 0 0 0 .982.287 2.341 2.341 0 0 0 1.564-.529 1.96 1.96 0 0 0 .627-1.587Zm7.646-4.382a4.923 4.923 0 0 1 .891.075l-.166 1.5a3.123 3.123 0 0 0-.816-.106 2.27 2.27 0 0 0-2 1.171 2.709 2.709 0 0 0-.324 1.367v4.291h-1.6V18.52h1.269l.212 1.45h.06a3.781 3.781 0 0 1 1.012-1.126 2.377 2.377 0 0 1 1.466-.476Zm5.562 7.148a3.566 3.566 0 0 0 1.224-.2v1.209a2.99 2.99 0 0 1-.7.2 4.672 4.672 0 0 1-.876.083 3.166 3.166 0 0 1-1.217-.227 1.827 1.827 0 0 1-.884-.786 3.05 3.05 0 0 1-.332-1.556v-4.5h-1.134v-.725l1.194-.6.559-1.722h.982v1.828h2.327v1.224h-2.327v4.473a1.32 1.32 0 0 0 .324.982 1.169 1.169 0 0 0 .854.318Zm-64.822 31.15-1.435-3.717h-4.471l-1.466 3.717h-.891l4.231-10.819h.816l4.14 10.819h-.922Zm-1.708-4.5-1.45-3.9c-.04-.141-.111-.363-.212-.665s-.191-.569-.272-.8q-.121.393-.257.793t-.227.688l-1.5 3.884h3.92Zm4.733 4.5h-.862V45.849h.862Zm9.383-8.175a2.756 2.756 0 0 1 2.025.665 2.874 2.874 0 0 1 .665 2.1v5.41h-.65l-.166-1.36h-.031a3.5 3.5 0 0 1-1.057 1.1 3.18 3.18 0 0 1-1.753.415 2.746 2.746 0 0 1-1.821-.575 2.082 2.082 0 0 1-.673-1.678 2.051 2.051 0 0 1 .974-1.828 5.707 5.707 0 0 1 2.864-.71l1.466-.075v-.559a2.387 2.387 0 0 0-.476-1.685 1.862 1.862 0 0 0-1.4-.491 4.459 4.459 0 0 0-1.194.158 5.746 5.746 0 0 0-1.148.461l-.272-.7a6.233 6.233 0 0 1 1.239-.469 5.438 5.438 0 0 1 1.406-.181Zm1.844 4.125-1.36.06a4.889 4.889 0 0 0-2.3.521 1.514 1.514 0 0 0-.756 1.383 1.372 1.372 0 0 0 .469 1.126 1.962 1.962 0 0 0 1.284.386 2.578 2.578 0 0 0 1.942-.71 2.851 2.851 0 0 0 .718-1.994v-.771Zm6.6-4.141a2.88 2.88 0 0 1 2.1.71 2.992 2.992 0 0 1 .725 2.221v5.259h-.862v-5.2a2.376 2.376 0 0 0-.521-1.693 2.027 2.027 0 0 0-1.534-.544q-2.66 0-2.659 3.053v4.382h-.846v-8.039h.7l.121 1.39h.06a2.666 2.666 0 0 1 1.005-1.1 3.131 3.131 0 0 1 1.715-.438Zm7.945 8.342a3.065 3.065 0 0 1-2.486-1.035 4.631 4.631 0 0 1-.869-3.045 4.908 4.908 0 0 1 .914-3.173 3.11 3.11 0 0 1 2.516-1.088 2.839 2.839 0 0 1 1.647.438 2.668 2.668 0 0 1 .937 1.1h.06q-.015-.362-.038-.8a15.297 15.297 0 0 1-.023-.771v-3.449h.862v11.67h-.7l-.121-1.39h-.046a2.966 2.966 0 0 1-.952 1.088 2.881 2.881 0 0 1-1.704.453Zm.105-.741a2.242 2.242 0 0 0 1.98-.846 4.235 4.235 0 0 0 .589-2.433v-.151a4.59 4.59 0 0 0-.589-2.546 2.136 2.136 0 0 0-1.919-.884 2.25 2.25 0 0 0-1.964.914 4.377 4.377 0 0 0-.665 2.607 4.054 4.054 0 0 0 .635 2.493 2.261 2.261 0 0 0 1.934.846Zm16.124-2.221a2.667 2.667 0 0 1-.484 1.624 2.988 2.988 0 0 1-1.33 1 5.158 5.158 0 0 1-1.934.34 9.251 9.251 0 0 1-1.693-.136 6.374 6.374 0 0 1-1.24-.347v-.862a9.261 9.261 0 0 0 1.337.4 7.435 7.435 0 0 0 1.655.174 3.483 3.483 0 0 0 2.017-.536 1.809 1.809 0 0 0 .778-1.595 1.772 1.772 0 0 0-.295-1.051 2.421 2.421 0 0 0-.907-.725 11.808 11.808 0 0 0-1.564-.627 9.475 9.475 0 0 1-1.556-.687 2.49 2.49 0 0 1-1.345-2.364 2.489 2.489 0 0 1 .446-1.5 2.785 2.785 0 0 1 1.224-.922 4.669 4.669 0 0 1 1.776-.318 7.152 7.152 0 0 1 2.841.575l-.3.756a6.463 6.463 0 0 0-2.569-.544 3.116 3.116 0 0 0-1.821.491 1.649 1.649 0 0 0-.7 1.443 1.846 1.846 0 0 0 .3 1.111 2.349 2.349 0 0 0 .877.7 11.9 11.9 0 0 0 1.406.575 11.522 11.522 0 0 1 1.639.7 2.991 2.991 0 0 1 1.065.914 2.414 2.414 0 0 1 .378 1.406Zm7.981-5.229v8.039h-.71l-.121-1.375h-.045a2.807 2.807 0 0 1-1.02 1.088 3.13 3.13 0 0 1-1.715.438q-2.841 0-2.841-2.931v-5.26h.876v5.2a2.425 2.425 0 0 0 .513 1.7 2.007 2.007 0 0 0 1.541.552q2.66 0 2.659-3.068v-4.382h.862Zm5.808-.151a2.976 2.976 0 0 1 2.41 1.035 4.71 4.71 0 0 1 .869 3.09 4.787 4.787 0 0 1-.9 3.136 3.025 3.025 0 0 1-2.455 1.08 2.92 2.92 0 0 1-1.715-.453 2.8 2.8 0 0 1-.945-1.088h-.06c.01.262.023.539.038.831s.023.569.023.831v3.05h-.862V48.628h.71l.106 1.511h.046a3.039 3.039 0 0 1 .96-1.163 2.869 2.869 0 0 1 1.776-.5Zm-.121.756a2.306 2.306 0 0 0-1.965.839 4.03 4.03 0 0 0-.65 2.426v.151a4.349 4.349 0 0 0 .627 2.577 2.232 2.232 0 0 0 1.927.854 2.158 2.158 0 0 0 1.9-.922 4.331 4.331 0 0 0 .665-2.569 4.164 4.164 0 0 0-.627-2.486 2.168 2.168 0 0 0-1.882-.869Zm8.332-.756a2.976 2.976 0 0 1 1.722.476 2.9 2.9 0 0 1 1.046 1.304 4.906 4.906 0 0 1 .347 1.9v.6h-5.747a3.613 3.613 0 0 0 .741 2.44 2.666 2.666 0 0 0 2.131.854 6.28 6.28 0 0 0 1.315-.121 6.129 6.129 0 0 0 1.224-.423v.786a5.73 5.73 0 0 1-1.194.393 6.9 6.9 0 0 1-1.375.121 3.481 3.481 0 0 1-2.765-1.1 4.405 4.405 0 0 1-.967-3.007 5.437 5.437 0 0 1 .415-2.183 3.443 3.443 0 0 1 1.2-1.5 3.26 3.26 0 0 1 1.9-.544Zm-.015.726a2.329 2.329 0 0 0-1.791.741 3.439 3.439 0 0 0-.808 2.1h4.82a3.578 3.578 0 0 0-.536-2.055 1.9 1.9 0 0 0-1.685-.786Zm8.17-.71a3.808 3.808 0 0 1 1.088.136l-.121.786a4.2 4.2 0 0 0-.484-.091 4.108 4.108 0 0 0-.514-.03 2.127 2.127 0 0 0-1.761.808 3.365 3.365 0 0 0-.642 2.154v4.413h-.853V48.63h.725l.091 1.511h.045a3.047 3.047 0 0 1 .914-1.163 2.374 2.374 0 0 1 1.519-.484Zm4.323 8.175h-.876v-10h-3.475v-.786h7.828v.786h-3.475v10Zm6.368-8.191a2.975 2.975 0 0 1 1.722.476 2.9 2.9 0 0 1 1.043 1.307 4.906 4.906 0 0 1 .347 1.9v.6h-5.743a3.614 3.614 0 0 0 .741 2.44 2.666 2.666 0 0 0 2.131.854 6.282 6.282 0 0 0 1.315-.121 6.134 6.134 0 0 0 1.224-.423v.786a5.729 5.729 0 0 1-1.194.393 6.9 6.9 0 0 1-1.375.121 3.48 3.48 0 0 1-2.765-1.1 4.405 4.405 0 0 1-.967-3.007 5.437 5.437 0 0 1 .415-2.183 3.443 3.443 0 0 1 1.2-1.5 3.261 3.261 0 0 1 1.9-.544Zm-.016.726a2.33 2.33 0 0 0-1.791.741 3.437 3.437 0 0 0-.808 2.1h4.82a3.578 3.578 0 0 0-.536-2.055 1.9 1.9 0 0 0-1.685-.786Zm8.19 7.616a3.455 3.455 0 0 1-2.727-1.08 4.433 4.433 0 0 1-.96-3.045 4.967 4.967 0 0 1 .484-2.289 3.363 3.363 0 0 1 1.352-1.435 4.034 4.034 0 0 1 2.017-.491 5.351 5.351 0 0 1 1.1.106 4.209 4.209 0 0 1 .9.287l-.241.756a4.26 4.26 0 0 0-1.753-.378 2.7 2.7 0 0 0-2.191.922 3.792 3.792 0 0 0-.771 2.509 3.97 3.97 0 0 0 .68 2.448 2.42 2.42 0 0 0 2.1.937 5.071 5.071 0 0 0 1.134-.121 4.811 4.811 0 0 0 .952-.317v.771a3.9 3.9 0 0 1-.907.31 5.444 5.444 0 0 1-1.163.114Zm4.431-11.636v3.687q0 .6-.046 1.148h.06a2.549 2.549 0 0 1 1-1.1 3.167 3.167 0 0 1 1.722-.438 2.908 2.908 0 0 1 2.108.71 2.974 2.974 0 0 1 .733 2.221v5.259h-.86v-5.2a2.376 2.376 0 0 0-.521-1.693 2.027 2.027 0 0 0-1.534-.544q-2.66 0-2.659 3.053v4.382h-.846V45.184h.846Z" /><path fill="#1a1a1a" d="M15 13.333h10A1.667 1.667 0 0 1 26.667 15v5L40 28.334V15A15 15 0 0 0 25 0H15A15 15 0 0 0 0 15v8.333L26.667 40v5A1.667 1.667 0 0 1 25 46.667H15A1.666 1.666 0 0 1 13.333 45v-8.333L0 28.334V45a15 15 0 0 0 15 15h10a15 15 0 0 0 15-15V33.334L13.333 16.667V15A1.666 1.666 0 0 1 15 13.333Z" /></svg>